<svg xmlns="http://www.w3.org/2000/svg" data-name="Layer 1" viewBox="0 0 100 100" x="0px" y="0px"><title>dollar euro</title><path fill="#53AE96" d="M53.84146,45.75707V25.23883c6.92072,1.11276,12.22,5.11989,12.22,9.748h9.878c0-10.17709-9.43732-18.34449-22.09806-19.732V5H46.15854V15.2548c-12.66074,1.38749-22.09806,9.55489-22.09806,19.732,0,13.02014,14.3531,17.51167,22.09806,19.25615V74.76117c-6.92072-1.11276-12.22-5.11989-12.22-9.748h-9.878c0,10.17709,9.43732,18.34449,22.09806,19.732V95h7.68292V84.7452c12.66074-1.38749,22.09806-9.55489,22.09806-19.732C75.93952,51.99308,61.58642,47.50155,53.84146,45.75707ZM33.93852,34.98678c0-4.62806,5.2993-8.63519,12.22-9.748V44.03329C38.05518,41.83133,33.93852,38.79877,33.93852,34.98678ZM53.84146,74.76117V55.96671c8.10336,2.202,12.22,5.23452,12.22,9.04651C66.06148,69.64128,60.76218,73.64841,53.84146,74.76117Z"></path></svg>